<svg viewBox="0 0 920 560" xmlns="http://www.w3.org/2000/svg" data-zoomable role="img" aria-label="Vue d ensemble du dispositif a trois perches sur un plan d eau">
<rect width="920" height="560" fill="#0d1117"/>
<text x="28" y="36" fill="#c9d4e0" font-family="ui-monospace, SFMono-Regular, Menlo, monospace" font-size="16" font-weight="700">DISPOSITIF A TROIS MIRES — VUE D'ENSEMBLE</text>
<text x="28" y="58" fill="#7b8a9c" font-family="ui-monospace, SFMono-Regular, Menlo, monospace" font-size="11.5" font-weight="400">Courbure verticale fortement exageree. A 10 km la fleche reelle vaut 1,96 m pour 4,00 m de perche.</text>

<polyline points="50,444.2 58,441.4 66,438.7 74,436.0 82,433.3 90,430.8 98,428.3 106,425.8 114,423.4 122,421.1 130,418.8 138,416.5 146,414.3 154,412.2 162,410.1 170,408.1 178,406.1 186,404.2 194,402.4 202,400.6 210,398.8 218,397.1 226,395.5 234,393.9 242,392.4 250,390.9 258,389.5 266,388.2 274,386.9 282,385.6 290,384.4 298,383.3 306,382.2 314,381.2 322,380.2 330,379.3 338,378.4 346,377.6 354,376.8 362,376.1 370,375.5 378,374.9 386,374.4 394,373.9 402,373.4 410,373.1 418,372.8 426,372.5 434,372.3 442,372.1 450,372.0 458,372.0 466,372.0 474,372.1 482,372.2 490,372.4 498,372.6 506,372.9 514,373.3 522,373.7 530,374.1 538,374.6 546,375.2 554,375.8 562,376.5 570,377.2 578,378.0 586,378.8 594,379.7 602,380.7 610,381.7 618,382.7 626,383.8 634,385.0 642,386.2 650,387.5 658,388.8 666,390.2 674,391.7 682,393.2 690,394.7 698,396.3 706,398.0 714,399.7 722,401.5 730,403.3 738,405.2 746,407.1 754,409.1 762,411.2 770,413.3 778,415.4 786,417.6 794,419.9 802,422.2 810,424.6 818,427.0 826,429.5 834,432.1 842,434.7 850,437.3 858,440.0 866,442.8" fill="none" stroke="#3B8FD4" stroke-width="2.5" opacity="0.9"/>
<path d="M50,444.2 50,444.2 L58,441.4 L66,438.7 L74,436.0 L82,433.3 L90,430.8 L98,428.3 L106,425.8 L114,423.4 L122,421.1 L130,418.8 L138,416.5 L146,414.3 L154,412.2 L162,410.1 L170,408.1 L178,406.1 L186,404.2 L194,402.4 L202,400.6 L210,398.8 L218,397.1 L226,395.5 L234,393.9 L242,392.4 L250,390.9 L258,389.5 L266,388.2 L274,386.9 L282,385.6 L290,384.4 L298,383.3 L306,382.2 L314,381.2 L322,380.2 L330,379.3 L338,378.4 L346,377.6 L354,376.8 L362,376.1 L370,375.5 L378,374.9 L386,374.4 L394,373.9 L402,373.4 L410,373.1 L418,372.8 L426,372.5 L434,372.3 L442,372.1 L450,372.0 L458,372.0 L466,372.0 L474,372.1 L482,372.2 L490,372.4 L498,372.6 L506,372.9 L514,373.3 L522,373.7 L530,374.1 L538,374.6 L546,375.2 L554,375.8 L562,376.5 L570,377.2 L578,378.0 L586,378.8 L594,379.7 L602,380.7 L610,381.7 L618,382.7 L626,383.8 L634,385.0 L642,386.2 L650,387.5 L658,388.8 L666,390.2 L674,391.7 L682,393.2 L690,394.7 L698,396.3 L706,398.0 L714,399.7 L722,401.5 L730,403.3 L738,405.2 L746,407.1 L754,409.1 L762,411.2 L770,413.3 L778,415.4 L786,417.6 L794,419.9 L802,422.2 L810,424.6 L818,427.0 L826,429.5 L834,432.1 L842,434.7 L850,437.3 L858,440.0 L866,442.8 L870,444.2 L870,490 L50,490 Z" fill="#3B8FD4" opacity="0.05"/>
<text x="700" y="488.6426592797784" fill="#3B8FD4" font-family="ui-monospace, SFMono-Regular, Menlo, monospace" font-size="11.5" font-weight="400">plan d'eau sans maree</text>

<line x1="110" y1="424.6" x2="110" y2="256.6" stroke="#c9d4e0" stroke-width="3.5" stroke-linecap="round"/><rect x="101" y="398.6" width="18" height="52" rx="3" fill="none" stroke="#3D9E7C" stroke-width="1.6"/><line x1="101" y1="436.6" x2="106" y2="436.6" stroke="#3D9E7C" stroke-width="1"/><line x1="114" y1="436.6" x2="119" y2="436.6" stroke="#3D9E7C" stroke-width="1"/><line x1="101" y1="443.6" x2="106" y2="443.6" stroke="#3D9E7C" stroke-width="1"/><line x1="114" y1="443.6" x2="119" y2="443.6" stroke="#3D9E7C" stroke-width="1"/><line x1="101" y1="450.6" x2="106" y2="450.6" stroke="#3D9E7C" stroke-width="1"/><line x1="114" y1="450.6" x2="119" y2="450.6" stroke="#3D9E7C" stroke-width="1"/><rect x="97" y="454.6" width="26" height="9" rx="2" fill="#7b8a9c" opacity="0.55"/><text x="110" y="482.59695290858724" fill="#c9d4e0" font-family="ui-monospace, SFMono-Regular, Menlo, monospace" font-size="15" font-weight="700" text-anchor="middle">A</text>
<line x1="460" y1="372.0" x2="460" y2="204.0" stroke="#B8941F" stroke-width="3.5" stroke-linecap="round"/><rect x="451" y="346.0" width="18" height="52" rx="3" fill="none" stroke="#3D9E7C" stroke-width="1.6"/><line x1="451" y1="384.0" x2="456" y2="384.0" stroke="#3D9E7C" stroke-width="1"/><line x1="464" y1="384.0" x2="469" y2="384.0" stroke="#3D9E7C" stroke-width="1"/><line x1="451" y1="391.0" x2="456" y2="391.0" stroke="#3D9E7C" stroke-width="1"/><line x1="464" y1="391.0" x2="469" y2="391.0" stroke="#3D9E7C" stroke-width="1"/><line x1="451" y1="398.0" x2="456" y2="398.0" stroke="#3D9E7C" stroke-width="1"/><line x1="464" y1="398.0" x2="469" y2="398.0" stroke="#3D9E7C" stroke-width="1"/><rect x="447" y="402.0" width="26" height="9" rx="2" fill="#7b8a9c" opacity="0.55"/><line x1="463" y1="204.0" x2="474" y2="204.0" stroke="#B8941F" stroke-width="1.3"/><line x1="463" y1="213.0" x2="469" y2="213.0" stroke="#B8941F" stroke-width="1.3"/><line x1="463" y1="222.0" x2="469" y2="222.0" stroke="#B8941F" stroke-width="1.3"/><line x1="463" y1="231.0" x2="469" y2="231.0" stroke="#B8941F" stroke-width="1.3"/><line x1="463" y1="240.0" x2="469" y2="240.0" stroke="#B8941F" stroke-width="1.3"/><line x1="463" y1="249.0" x2="474" y2="249.0" stroke="#B8941F" stroke-width="1.3"/><line x1="463" y1="258.0" x2="469" y2="258.0" stroke="#B8941F" stroke-width="1.3"/><line x1="463" y1="267.0" x2="469" y2="267.0" stroke="#B8941F" stroke-width="1.3"/><line x1="463" y1="276.0" x2="469" y2="276.0" stroke="#B8941F" stroke-width="1.3"/><line x1="463" y1="285.0" x2="469" y2="285.0" stroke="#B8941F" stroke-width="1.3"/><line x1="463" y1="294.0" x2="474" y2="294.0" stroke="#B8941F" stroke-width="1.3"/><text x="460" y="430.0" fill="#B8941F" font-family="ui-monospace, SFMono-Regular, Menlo, monospace" font-size="15" font-weight="700" text-anchor="middle">B</text>
<line x1="810" y1="424.6" x2="810" y2="256.6" stroke="#c9d4e0" stroke-width="3.5" stroke-linecap="round"/><rect x="801" y="398.6" width="18" height="52" rx="3" fill="none" stroke="#3D9E7C" stroke-width="1.6"/><line x1="801" y1="436.6" x2="806" y2="436.6" stroke="#3D9E7C" stroke-width="1"/><line x1="814" y1="436.6" x2="819" y2="436.6" stroke="#3D9E7C" stroke-width="1"/><line x1="801" y1="443.6" x2="806" y2="443.6" stroke="#3D9E7C" stroke-width="1"/><line x1="814" y1="443.6" x2="819" y2="443.6" stroke="#3D9E7C" stroke-width="1"/><line x1="801" y1="450.6" x2="806" y2="450.6" stroke="#3D9E7C" stroke-width="1"/><line x1="814" y1="450.6" x2="819" y2="450.6" stroke="#3D9E7C" stroke-width="1"/><rect x="797" y="454.6" width="26" height="9" rx="2" fill="#7b8a9c" opacity="0.55"/><text x="810" y="482.59695290858724" fill="#c9d4e0" font-family="ui-monospace, SFMono-Regular, Menlo, monospace" font-size="15" font-weight="700" text-anchor="middle">C</text>

<line x1="110" y1="256.6" x2="810" y2="256.6" stroke="#C45E6A" stroke-width="2" stroke-dasharray="8 5"/>
<text x="178" y="240.59695290858724" fill="#C45E6A" font-family="ui-monospace, SFMono-Regular, Menlo, monospace" font-size="12" font-weight="700">ligne de visee A vers C — une droite geometrique</text>

<line x1="460" y1="204.0" x2="460" y2="256.6" stroke="#B8941F" stroke-width="2.5"/>
<circle cx="460" cy="204.0" r="4.5" fill="#B8941F"/>
<circle cx="460" cy="256.6" r="4.5" fill="#C45E6A"/>
<text x="476" y="235.29847645429362" fill="#B8941F" font-family="ui-monospace, SFMono-Regular, Menlo, monospace" font-size="13" font-weight="700">f  =  la fleche</text>
<text x="476" y="251.29847645429362" fill="#7b8a9c" font-family="ui-monospace, SFMono-Regular, Menlo, monospace" font-size="11" font-weight="400">lecture sur la graduation</text>

<circle cx="110" cy="256.6" r="7" fill="none" stroke="#8B7EC8" stroke-width="2"/>
<line x1="88" y1="242.6" x2="103" y2="252.6" stroke="#8B7EC8" stroke-width="2"/>
<text x="80" y="236.59695290858724" fill="#8B7EC8" font-family="ui-monospace, SFMono-Regular, Menlo, monospace" font-size="11.5" font-weight="400" text-anchor="end">lunette</text>

<line x1="110" y1="508" x2="460" y2="508" stroke="#7b8a9c" stroke-width="1"/><line x1="110" y1="504" x2="110" y2="512" stroke="#7b8a9c" stroke-width="1"/><line x1="460" y1="504" x2="460" y2="512" stroke="#7b8a9c" stroke-width="1"/><text x="285.0" y="502" fill="#7b8a9c" font-family="ui-monospace, SFMono-Regular, Menlo, monospace" font-size="11" font-weight="400" text-anchor="middle">D / 2</text>
<line x1="460" y1="508" x2="810" y2="508" stroke="#7b8a9c" stroke-width="1"/><line x1="460" y1="504" x2="460" y2="512" stroke="#7b8a9c" stroke-width="1"/><line x1="810" y1="504" x2="810" y2="512" stroke="#7b8a9c" stroke-width="1"/><text x="635.0" y="502" fill="#7b8a9c" font-family="ui-monospace, SFMono-Regular, Menlo, monospace" font-size="11" font-weight="400" text-anchor="middle">D / 2</text>
<line x1="110" y1="534" x2="810" y2="534" stroke="#B8941F" stroke-width="1"/><line x1="110" y1="530" x2="110" y2="538" stroke="#B8941F" stroke-width="1"/><line x1="810" y1="530" x2="810" y2="538" stroke="#B8941F" stroke-width="1"/><text x="460.0" y="528" fill="#B8941F" font-family="ui-monospace, SFMono-Regular, Menlo, monospace" font-size="12" font-weight="400" text-anchor="middle">D  =  1 · 1,5 · 2 · 3 · 5 · 7 · 10 km — sept configurations</text>

<line x1="852" y1="256.59695290858724" x2="852" y2="424.59695290858724" stroke="#7b8a9c" stroke-width="1"/><line x1="848" y1="256.59695290858724" x2="856" y2="256.59695290858724" stroke="#7b8a9c" stroke-width="1"/><line x1="848" y1="424.59695290858724" x2="856" y2="424.59695290858724" stroke="#7b8a9c" stroke-width="1"/><text x="860" y="344.59695290858724" fill="#7b8a9c" font-family="ui-monospace, SFMono-Regular, Menlo, monospace" font-size="11" font-weight="400">4,00 m</text>
<line x1="810" y1="256.6" x2="856" y2="256.6" stroke="#7b8a9c" stroke-width="0.8" stroke-dasharray="3 3"/>
<line x1="810" y1="424.6" x2="856" y2="424.6" stroke="#7b8a9c" stroke-width="0.8" stroke-dasharray="3 3"/>

<rect x="28" y="400" width="300" height="86" rx="6" fill="none" stroke="#1f2733" stroke-width="1"/>
<text x="42" y="420" fill="#C45E6A" font-family="ui-monospace, SFMono-Regular, Menlo, monospace" font-size="11" font-weight="700">MODELE PLAN</text>
<text x="42" y="438" fill="#c9d4e0" font-family="ui-monospace, SFMono-Regular, Menlo, monospace" font-size="11.5" font-weight="400">f = 0. La lecture vaut 4,000 m</text>
<text x="42" y="454" fill="#c9d4e0" font-family="ui-monospace, SFMono-Regular, Menlo, monospace" font-size="11.5" font-weight="400">a toute distance.</text>
<text x="42" y="474" fill="#3B8FD4" font-family="ui-monospace, SFMono-Regular, Menlo, monospace" font-size="11" font-weight="700">MODELE SPHERIQUE   f = (1-k) D2 / 8R</text>
</svg>
